# xmcd
#
# Track frame offsets: 
#        150
#        8925
#        18791
#        26566
#        28787
#        31928
#        48254
#        60306
#        67319
#        68615
#        90862
#        94451
#        98515
#        119029
#        139212
#        147424
#        152673
#        161948
#        174761
#        186878
#        187734
#        188852
#        219857
#        227549
#        244585
#        253937
#        263087
#        263680
#
# Disc length: 3545 seconds
#
# Revision: 0
# Processed by: cddbd v1.5.2PL0 Copyright (c) Steve Scherf et al.
# Submitted via: ExactAudioCopy v0.95b3
#
DISCID=760dd71c
DTITLE=The Beatles  - AB  Road - Complete Purple Chick Set v1.1 Jan.24
DTITLE=Various Artist - D4  FLAC
DYEAR=1900
DGENRE=
TTITLE0=Tuning
TTITLE1=Get back 24.86
TTITLE2=There You Are Eddie 24.87
TTITLE3=Get Back 24.88
TTITLE4=Get Back 24.89
TTITLE5=Get Back 24.90
TTITLE6=Get Back-Little Demon-Maybellene-(Medley) 24.91
TTITLE7=Short Fat Fanny 24.92
TTITLE8=Get Back 24.93
TTITLE9=Get Back 24.94
TTITLE10=Green Onions 24.95
TTITLE11=Get Back 24.96
TTITLE12=Get Back 24.97
TTITLE13=Bad Boy 24.98
TTITLE14=Sweet Little Sixteen 24.99
TTITLE15=Around and Around 24.100
TTITLE16=Almost Grown 24.101a
TTITLE17=School Day (Ring Ring Goes The Bell) 24.101b
TTITLE18=Stand By Me - Where Have You Been All My Life 24.102
TTITLE19=Lady Madonna 24.103
TTITLE20=Lovely Rita-Get Back 24.104
TTITLE21=Get Back 24.105
TTITLE22=Lonely Sea 24.106
TTITLE23=Unknown 24.107
TTITLE24=Ramrod 24.108
TTITLE25=Silence
TTITLE26=Tape Rewind
TTITLE27=Unknown Playback
EXTD=
EXTT0=
EXTT1=
EXTT2=
EXTT3=
EXTT4=
EXTT5=
EXTT6=
EXTT7=
EXTT8=
EXTT9=
EXTT10=
EXTT11=
EXTT12=
EXTT13=
EXTT14=
EXTT15=
EXTT16=
EXTT17=
EXTT18=
EXTT19=
EXTT20=
EXTT21=
EXTT22=
EXTT23=
EXTT24=
EXTT25=
EXTT26=
EXTT27=
PLAYORDER=
